<?xml version="1.0" standalone="no"?>
<!DOCTYPE svg PUBLIC "-//W3C//DTD SVG 1.1//EN" "http://www.w3.org/Graphics/SVG/1.1/DTD/svg11.dtd" >
<svg xmlns="http://www.w3.org/2000/svg">
<metadata></metadata>
<defs>
<font id="good_times_rgregular" horiz-adv-x="2025" >
<font-face units-per-em="2048" ascent="1636" descent="-412" />
<missing-glyph horiz-adv-x="602" />
<glyph unicode="&#x28;C&#x29;" horiz-adv-x="1697" d="M86 745q0 155 60.5 296.5t163 243.5t243.5 162t297 60q155 0 296.5 -60t243.5 -162t162 -243.5t60 -296.5q0 -125 -38.5 -241.5t-108.5 -210.5t-164 -165t-210.5 -109.5t-240.5 -38.5q-155 0 -296.5 60.5t-244 163t-163 244.5t-60.5 297zM160 743q0 -141 54 -269.5 t146.5 -221.5t221.5 -148t272 -55q187 0 346 93t251.5 253t92.5 348q0 189 -92.5 349.5t-251.5 254t-346 93.5q-191 0 -351 -93.5t-251.5 -253.5t-91.5 -350zM463 748q0 155 107 251.5t272 96.5h250v-97h-250q-117 0 -194 -72t-77 -188q0 -111 76.5 -183.5t194.5 -72.5h250 v-94h-250q-162 0 -270.5 103t-108.5 256z" />
<glyph unicode="&#x28;R&#x29;" horiz-adv-x="1198" d="M129 1036q0 196 137 333.5t332 137.5t333 -137.5t138 -333.5q0 -128 -63 -236t-171.5 -170.5t-236.5 -62.5q-195 0 -332 137t-137 332zM201 1036q0 -162 117 -277.5t280 -115.5t279 115t116 278q0 166 -116 283t-279 117t-280 -117.5t-117 -282.5zM385 868v381h291 q68 0 106.5 -37.5t38.5 -101.5q0 -92 -82 -129l119 -113h-104l-103 103h-108v65h133q35 0 54.5 19t19.5 53q0 33 -19.5 52.5t-54.5 19.5h-219v-312h-72z" />
<glyph horiz-adv-x="2048" />
<glyph horiz-adv-x="2048" />
<glyph unicode="&#xd;" horiz-adv-x="2048" />
<glyph horiz-adv-x="602" />
<glyph unicode=" "  horiz-adv-x="602" />
<glyph unicode="&#x09;" horiz-adv-x="602" />
<glyph unicode="&#xa0;" horiz-adv-x="602" />
<glyph unicode="!" horiz-adv-x="610" d="M170 123q0 59 40 98t99 39q61 0 100.5 -38.5t39.5 -98.5q0 -63 -39 -102t-101 -39q-59 0 -99 39.5t-40 101.5zM182 479v1012h246v-1012h-246z" />
<glyph unicode="&#x22;" horiz-adv-x="925" d="M139 1489h264l-47 -535h-170zM522 1489h264l-47 -535h-168z" />
<glyph unicode="#" horiz-adv-x="1427" d="M90 403v175h238l106 358h-186v172h239l115 381h186l-114 -381h303l115 381h184l-115 -381h187v-172h-240l-107 -358h187v-175h-240l-121 -403h-184l121 403h-305l-121 -403h-182l118 403h-184zM512 578h305l107 358h-306z" />
<glyph unicode="$" horiz-adv-x="1523" d="M117 1010q0 147 96.5 240t269.5 93h232v146h114v-146h517v-208h-517v-293h203q371 0 371 -346q0 -158 -94.5 -254.5t-276.5 -96.5h-203v-145h-114v145h-582v213h582v312h-234q-167 0 -265.5 94.5t-98.5 245.5zM334 989q0 -68 40.5 -107.5t108.5 -39.5h232v293h-232 q-70 0 -109.5 -39.5t-39.5 -106.5zM829 358h203q83 0 127.5 41t44.5 113q0 158 -172 158h-203v-312z" />
<glyph unicode="%" horiz-adv-x="1976" d="M86 1147q0 163 110 269t275 106q164 0 275.5 -106t111.5 -269q0 -162 -112.5 -275.5t-274.5 -113.5q-163 0 -274 113.5t-111 275.5zM199 -137l1345 1716h174l-1341 -1716h-178zM215 1141q0 -111 68 -181.5t188 -70.5q119 0 187.5 71t68.5 181t-68.5 180t-187.5 70 t-187.5 -70t-68.5 -180zM1118 358q0 163 110 269t275 106q164 0 275.5 -106t111.5 -269q0 -162 -112.5 -275.5t-274.5 -113.5q-163 0 -274 113.5t-111 275.5zM1247 352q0 -111 68 -181.5t188 -70.5q119 0 187.5 71t68.5 181t-68.5 180t-187.5 70t-187.5 -70t-68.5 -180z" />
<glyph unicode="&#x26;" horiz-adv-x="1554" d="M100 453q0 123 65 211t169 122q-91 29 -148 107.5t-57 210.5q0 187 129 286t352 99h283v-258h-291q-211 0 -211 -184q0 -87 55 -134t162 -47h795v-217h-176v-389h268v-260h-915q-220 0 -350 123.5t-130 329.5zM362 459q0 -95 68 -147t193 -52h344v389h-340 q-134 0 -199.5 -43t-65.5 -147z" />
<glyph unicode="'" horiz-adv-x="522" d="M129 1489h264l-49 -535h-166z" />
<glyph unicode="(" horiz-adv-x="729" d="M193 760q0 222 53 447.5t164 484.5h188q-123 -279 -181.5 -504t-58.5 -430q0 -430 242 -940h-184q-117 254 -170 482.5t-53 459.5z" />
<glyph unicode=")" horiz-adv-x="727" d="M129 -182q240 512 240 940q0 205 -57.5 430.5t-178.5 503.5h184q112 -259 166 -484.5t54 -447.5q0 -231 -53.5 -459.5t-170.5 -482.5h-184z" />
<glyph unicode="*" horiz-adv-x="960" d="M129 1190l37 115l252 -78v262h123v-262l254 78l36 -115l-253 -78l157 -223l-96 -72l-160 223l-157 -223l-97 74l156 221z" />
<glyph unicode="+" horiz-adv-x="1413" d="M129 672v172h492v491h174v-491h489v-172h-489v-494h-174v494h-492z" />
<glyph unicode="," horiz-adv-x="530" d="M139 -242v533h262l-102 -533h-160z" />
<glyph unicode="-" horiz-adv-x="606" d="M59 670v174h492v-174h-492z" />
<glyph unicode="." horiz-adv-x="536" d="M129 123q0 59 39.5 99t97.5 40q60 0 101 -40t41 -99t-41 -99t-101 -40q-58 0 -97.5 40t-39.5 99z" />
<glyph unicode="/" horiz-adv-x="909" d="M18 0l701 1489h170l-690 -1489h-181z" />
<glyph unicode="0" horiz-adv-x="1716" d="M86 760q0 161 59.5 300.5t162.5 237t245.5 153.5t304.5 56q215 0 391.5 -95t278.5 -266.5t102 -385.5q0 -160 -60 -304t-162.5 -248t-246 -165t-303.5 -61q-214 0 -391.5 103.5t-279 282t-101.5 392.5zM346 748q0 -222 136 -364t374 -142q239 0 375.5 142t136.5 364 q0 221 -136 359t-374 138q-240 0 -376 -138t-136 -359z" />
<glyph unicode="1" horiz-adv-x="788" d="M49 1229v260h144q223 0 344.5 -128.5t121.5 -359.5v-1001h-258v1001q0 110 -53.5 169t-154.5 59h-144z" />
<glyph unicode="2" horiz-adv-x="1689" d="M129 0v436q0 215 116.5 322.5t342.5 107.5h538q86 0 137.5 48.5t51.5 132.5q0 85 -50.5 133.5t-138.5 48.5h-985v260h985q216 0 336.5 -116t120.5 -302q0 -188 -123 -306t-332 -118h-540q-105 0 -159 -48.5t-54 -143.5v-195h1184v-260h-1430z" />
<glyph unicode="3" horiz-adv-x="1693" d="M94 0v260h957q126 0 202 51.5t76 145.5q0 92 -58 141t-167 49h-658v219h639q112 0 165 43t53 138q0 99 -67 141.5t-202 42.5h-934v258h985q222 0 351 -99t129 -286q0 -132 -57 -210.5t-148 -107.5q105 -33 169 -121t64 -214q0 -203 -131 -327t-348 -124h-1020z" />
<glyph unicode="4" horiz-adv-x="1730" d="M98 874v615h260v-612q0 -126 55 -178t175 -52h616v842h260v-842h215v-250h-215v-397h-260v397h-616q-490 0 -490 477z" />
<glyph unicode="5" horiz-adv-x="1812" d="M129 0v260h1116q102 0 158.5 53t56.5 142q0 94 -55.5 143t-159.5 49h-1116v842h1505v-260h-1237v-363h848q226 0 343.5 -107.5t117.5 -322.5q0 -195 -118.5 -315.5t-342.5 -120.5h-1116z" />
<glyph unicode="6" horiz-adv-x="1785" d="M86 760q0 371 175.5 550t500.5 179h854v-260h-854q-180 0 -283 -87.5t-127 -273.5h873q219 0 335.5 -102t116.5 -313q0 -215 -120 -334t-332 -119h-463q-321 0 -498.5 192t-177.5 568zM350 647q39 -387 412 -387h438q110 0 168.5 53t58.5 150q0 184 -227 184h-850z" />
<glyph unicode="7" horiz-adv-x="1548" d="M90 1229v260h1251q83 0 123.5 -34t40.5 -89q0 -64 -49 -123l-1016 -1243h-338l1018 1229h-1030z" />
<glyph unicode="8" horiz-adv-x="1839" d="M104 451q0 126 64.5 213.5t169.5 121.5q-91 29 -148 107.5t-57 210.5q0 187 128.5 286t350.5 99h615q222 0 351.5 -99.5t129.5 -285.5q0 -132 -57.5 -210.5t-149.5 -107.5q105 -34 169.5 -121.5t64.5 -213.5q0 -204 -131 -327.5t-349 -123.5h-671q-218 0 -349 123.5 t-131 327.5zM367 455q0 -94 76.5 -144.5t203.5 -50.5h545q127 0 204 50.5t77 144.5q0 92 -59.5 142t-168.5 50h-651q-109 0 -168 -50t-59 -142zM395 1047q0 -96 52.5 -138.5t164.5 -42.5h615q112 0 164.5 42.5t52.5 138.5q0 99 -66.5 141.5t-199.5 42.5h-516 q-133 0 -200 -42.5t-67 -141.5z" />
<glyph unicode="9" horiz-adv-x="1763" d="M86 1024q0 202 117.5 333.5t312.5 131.5h485q320 0 498 -192.5t178 -567.5q0 -188 -46.5 -328t-135 -227.5t-212 -130.5t-282.5 -43h-747v260h747q346 0 404 326h-889q-430 0 -430 438zM350 1010q0 -104 54.5 -155.5t154.5 -51.5h856q-26 424 -414 424h-442 q-98 0 -153.5 -57t-55.5 -160z" />
<glyph unicode=":" horiz-adv-x="536" d="M129 123q0 59 39.5 99t97.5 40q60 0 101 -40t41 -99t-41 -99t-101 -40q-58 0 -97.5 40t-39.5 99zM129 795q0 59 39.5 100t97.5 41q60 0 101 -41t41 -100q0 -58 -41 -98t-101 -40q-58 0 -97.5 39.5t-39.5 98.5z" />
<glyph unicode=";" horiz-adv-x="536" d="M131 797q0 61 39 100t98 39q62 0 101 -39t39 -100q0 -60 -39.5 -100t-100.5 -40q-59 0 -98 40t-39 100zM139 -242v533h262l-102 -533h-160z" />
<glyph unicode="&#x3c;" horiz-adv-x="1413" d="M129 758q0 30 19 56.5t51 39.5l1085 455v-187l-934 -364l934 -369v-184l-1085 457q-70 29 -70 96z" />
<glyph unicode="=" horiz-adv-x="1413" d="M129 393v172h1155v-172h-1155zM129 946v172h1155v-172h-1155z" />
<glyph unicode="&#x3e;" horiz-adv-x="1413" d="M129 205v184l934 369l-934 364v187l1085 -455q32 -13 51 -39.5t19 -56.5q0 -67 -70 -96z" />
<glyph unicode="?" horiz-adv-x="1589" d="M90 1229v260h983q215 0 335 -116t120 -302q0 -188 -122 -306t-329 -118h-506q-96 0 -96 -86v-82h-246v88q0 140 86.5 219.5t255.5 79.5h502q87 0 138 48.5t51 132.5q0 85 -50.5 133.5t-138.5 48.5h-983zM217 125q0 59 40 98t99 39q61 0 100.5 -38.5t39.5 -98.5 q0 -63 -39 -102t-101 -39q-59 0 -99 39.5t-40 101.5z" />
<glyph unicode="@" horiz-adv-x="1705" d="M86 727q0 214 97.5 388t269.5 273t383 99h741v-1088h-774q-129 0 -211 98.5t-82 243.5q0 144 81 240t212 96h401v-514h178v733h-546q-255 0 -405 -152.5t-150 -400.5t149.5 -401.5t405.5 -153.5h741v-188h-741q-216 0 -386 89.5t-267 256t-97 381.5zM684 745 q0 -79 46.5 -130.5t119.5 -51.5h184v367h-184q-76 0 -121 -50t-45 -135z" />
<glyph unicode="A" d="M29 0l856 1425q51 84 127 84q74 0 125 -84l858 -1425h-314l-223 375h-704l123 211h456l-332 557l-675 -1143h-297z" />
<glyph unicode="B" horiz-adv-x="1824" d="M127 0v1489h1090q223 0 353 -99t130 -286q0 -132 -57.5 -210.5t-149.5 -107.5q105 -33 169 -121t64 -214q0 -204 -130.5 -327.5t-348.5 -123.5h-1120zM387 258h754q321 0 321 197q0 92 -58 142t-167 50h-662v219h644q112 0 164.5 42.5t52.5 138.5q0 46 -15 79.5t-40.5 53 t-68 31t-87 15t-107.5 3.5h-731v-971z" />
<glyph unicode="C" horiz-adv-x="1697" d="M86 760q0 215 94 382t258 257t371 90h807v-260h-807q-201 0 -332 -135t-131 -346t131 -349.5t332 -138.5h807v-260h-807q-205 0 -370.5 99.5t-259 273.5t-93.5 387z" />
<glyph unicode="D" horiz-adv-x="1800" d="M129 0v1489h862q208 0 373 -91.5t258.5 -258t93.5 -379.5q0 -214 -93 -387.5t-259 -273t-373 -99.5h-862zM387 260h604q201 0 333 138.5t132 349.5q0 210 -131.5 345.5t-333.5 135.5h-604v-969z" />
<glyph unicode="E" horiz-adv-x="1554" d="M129 0v1489h1329v-260h-1071v-969h1073v-260h-1331zM578 647v219h825v-219h-825z" />
<glyph unicode="F" horiz-adv-x="1443" d="M129 0v1489h1264v-260h-1006v-1229h-258zM578 616v228h753v-228h-753z" />
<glyph unicode="G" horiz-adv-x="1818" d="M86 760q0 215 94 382t258 257t371 90h807v-260h-807q-201 0 -332 -135t-131 -346t131 -349.5t332 -138.5h637v387h-672v219h934v-866h-899q-205 0 -370.5 99.5t-259 273.5t-93.5 387z" />
<glyph unicode="H" horiz-adv-x="1716" d="M129 -6v1495h260v-1495h-260zM578 641v231h749v617h260v-1495h-260v647h-749z" />
<glyph unicode="I" horiz-adv-x="546" d="M143 0v1489h260v-1489h-260z" />
<glyph unicode="J" horiz-adv-x="1449" d="M49 0v260h545q259 0 374 100t115 318v811h260v-811q0 -347 -181 -512.5t-568 -165.5h-545z" />
<glyph unicode="K" horiz-adv-x="1792" d="M129 0v1489h260v-1489h-260zM469 764q0 36 14 63t52 56l788 606h399l-974 -727l1005 -762h-397l-834 655q-31 24 -42 49.5t-11 59.5z" />
<glyph unicode="L" horiz-adv-x="1447" d="M129 0v1489h260v-1229h1002v-260h-1262z" />
<glyph unicode="M" horiz-adv-x="2283" d="M49 0l383 1401q26 106 129 106q42 0 77.5 -23t53.5 -65l459 -1052l459 1052q39 88 125 88q96 0 125 -106l381 -1401h-259l-284 1047l-422 -969q-45 -98 -133 -98q-91 0 -133 98l-420 969l-285 -1047h-256z" />
<glyph unicode="N" horiz-adv-x="1787" d="M123 0v1352q0 72 35.5 113.5t97.5 41.5q58 0 111 -53l1050 -1042v1089h248v-1364q0 -72 -35.5 -113.5t-93.5 -41.5q-64 0 -119 55l-1046 1053v-1090h-248z" />
<glyph unicode="O" horiz-adv-x="1982" d="M86 760q0 215 94 382t258 257t371 90h362q213 0 379 -91.5t258.5 -258t92.5 -379.5q0 -214 -93.5 -387.5t-260.5 -273t-376 -99.5h-362q-205 0 -370.5 99.5t-259 273.5t-93.5 387zM346 748q0 -211 131 -349.5t332 -138.5h362q205 0 337 138.5t132 349.5t-132 346 t-337 135h-362q-201 0 -332 -135t-131 -346z" />
<glyph unicode="P" horiz-adv-x="1775" d="M129 0v1489h1047q256 0 400 -143t144 -390q0 -245 -145 -393.5t-399 -148.5h-598v252h598q135 0 212.5 77t77.5 205q0 130 -77 205.5t-213 75.5h-789v-1229h-258z" />
<glyph unicode="Q" horiz-adv-x="1982" d="M86 760q0 215 94 382t258 257t371 90h362q213 0 379 -91.5t258.5 -258t92.5 -379.5q0 -160 -54.5 -300t-152.5 -243l280 -217h-346l-102 88q-163 -88 -355 -88h-362q-205 0 -370.5 99.5t-259 273.5t-93.5 387zM346 748q0 -211 131 -349.5t332 -138.5h362q63 0 129 16 l-430 338h344l277 -233q70 67 109.5 162t39.5 205q0 211 -132 346t-337 135h-362q-201 0 -332 -135t-131 -346z" />
<glyph unicode="R" horiz-adv-x="1886" d="M129 0v1489h1069q253 0 397 -146t144 -397q0 -183 -80.5 -310t-226.5 -183l448 -453h-369l-376 414h-557v229h620q139 0 212 77t73 222q0 142 -74.5 214.5t-210.5 72.5h-811v-1229h-258z" />
<glyph unicode="S" horiz-adv-x="1802" d="M106 1071q0 186 121 302t338 116h1069v-260h-1069q-89 0 -138.5 -48.5t-49.5 -133.5t50 -133t136 -48h682q228 0 345.5 -107.5t117.5 -322.5q0 -196 -119 -316t-344 -120h-1116v260h1116q103 0 160 53t57 142q0 95 -56 143.5t-161 48.5h-684q-208 0 -331.5 118.5 t-123.5 305.5z" />
<glyph unicode="T" horiz-adv-x="1474" d="M41 1229v260h1391v-260h-566v-1229h-260v1229h-565z" />
<glyph unicode="U" horiz-adv-x="1820" d="M106 657v832h269v-832q0 -153 50.5 -243t169 -134t323.5 -44t323.5 44t168.5 134t50 243v832h254v-832q0 -351 -188.5 -514t-616.5 -163q-425 0 -614 163.5t-189 513.5z" />
<glyph unicode="V" d="M29 1489h317l676 -1147l674 1147h299l-858 -1426q-50 -83 -125 -83q-77 0 -127 83z" />
<glyph unicode="W" horiz-adv-x="2596" d="M29 1489h311l602 -1145l225 406l-387 739h314l575 -1145l606 1145h291l-770 -1428q-46 -81 -135 -81q-90 0 -133 81l-230 437l-231 -437q-43 -81 -133 -81q-89 0 -135 81z" />
<glyph unicode="X" horiz-adv-x="2048" d="M45 0l799 774l-742 715h359l567 -551l559 551h338l-741 -715l807 -774h-365l-625 608l-618 -608h-338z" />
<glyph unicode="Y" horiz-adv-x="1896" d="M27 1489h350l579 -686l582 686h332l-793 -924v-565h-260v565z" />
<glyph unicode="Z" horiz-adv-x="1642" d="M82 133q0 58 53 111l989 997h-1024v248h1303q61 0 104 -35t43 -98q0 -58 -53 -111l-989 -997h1036v-248h-1315q-62 0 -104.5 35t-42.5 98z" />
<glyph unicode="[" horiz-adv-x="681" d="M203 -182v1874h350v-170h-180v-1538h180v-166h-350z" />
<glyph unicode="\" horiz-adv-x="911" d="M20 1489h173l698 -1489h-180z" />
<glyph unicode="]" horiz-adv-x="681" d="M129 -16h178v1538h-178v170h350v-1874h-350v166z" />
<glyph unicode="^" horiz-adv-x="1144" d="M129 614l350 824q29 69 94 69q31 0 58.5 -18.5t40.5 -50.5l344 -824h-176l-267 674l-270 -674h-174z" />
<glyph unicode="_" horiz-adv-x="1368" d="M0 -209h1384v-121h-1384v121z" />
<glyph unicode="`" horiz-adv-x="741" d="M109 1694v161l524 -157v-117z" />
<glyph unicode="a" d="M29 0l856 1425q51 84 127 84q74 0 125 -84l858 -1425h-314l-223 375h-704l123 211h456l-332 557l-675 -1143h-297z" />
<glyph unicode="b" horiz-adv-x="1824" d="M127 0v1489h1090q223 0 353 -99t130 -286q0 -132 -57.5 -210.5t-149.5 -107.5q105 -33 169 -121t64 -214q0 -204 -130.5 -327.5t-348.5 -123.5h-1120zM387 258h754q321 0 321 197q0 92 -58 142t-167 50h-662v219h644q112 0 164.5 42.5t52.5 138.5q0 46 -15 79.5t-40.5 53 t-68 31t-87 15t-107.5 3.5h-731v-971z" />
<glyph unicode="c" horiz-adv-x="1697" d="M86 760q0 215 94 382t258 257t371 90h807v-260h-807q-201 0 -332 -135t-131 -346t131 -349.5t332 -138.5h807v-260h-807q-205 0 -370.5 99.5t-259 273.5t-93.5 387z" />
<glyph unicode="d" horiz-adv-x="1800" d="M129 0v1489h862q208 0 373 -91.5t258.5 -258t93.5 -379.5q0 -214 -93 -387.5t-259 -273t-373 -99.5h-862zM387 260h604q201 0 333 138.5t132 349.5q0 210 -131.5 345.5t-333.5 135.5h-604v-969z" />
<glyph unicode="e" horiz-adv-x="1554" d="M129 0v1489h1329v-260h-1071v-969h1073v-260h-1331zM578 647v219h825v-219h-825z" />
<glyph unicode="f" horiz-adv-x="1443" d="M129 0v1489h1264v-260h-1006v-1229h-258zM578 616v228h753v-228h-753z" />
<glyph unicode="g" horiz-adv-x="1818" d="M86 760q0 215 94 382t258 257t371 90h807v-260h-807q-201 0 -332 -135t-131 -346t131 -349.5t332 -138.5h637v387h-672v219h934v-866h-899q-205 0 -370.5 99.5t-259 273.5t-93.5 387z" />
<glyph unicode="h" horiz-adv-x="1716" d="M129 -6v1495h260v-1495h-260zM578 641v231h749v617h260v-1495h-260v647h-749z" />
<glyph unicode="i" horiz-adv-x="546" d="M143 0v1489h260v-1489h-260z" />
<glyph unicode="j" horiz-adv-x="1449" d="M49 0v260h545q259 0 374 100t115 318v811h260v-811q0 -347 -181 -512.5t-568 -165.5h-545z" />
<glyph unicode="k" horiz-adv-x="1792" d="M129 0v1489h260v-1489h-260zM469 764q0 36 14 63t52 56l788 606h399l-974 -727l1005 -762h-397l-834 655q-31 24 -42 49.5t-11 59.5z" />
<glyph unicode="l" horiz-adv-x="1447" d="M129 0v1489h260v-1229h1002v-260h-1262z" />
<glyph unicode="m" horiz-adv-x="2283" d="M49 0l383 1401q26 106 129 106q42 0 77.5 -23t53.5 -65l459 -1052l459 1052q39 88 125 88q96 0 125 -106l381 -1401h-259l-284 1047l-422 -969q-45 -98 -133 -98q-91 0 -133 98l-420 969l-285 -1047h-256z" />
<glyph unicode="n" horiz-adv-x="1787" d="M123 0v1352q0 72 35.5 113.5t97.5 41.5q58 0 111 -53l1050 -1042v1089h248v-1364q0 -72 -35.5 -113.5t-93.5 -41.5q-64 0 -119 55l-1046 1053v-1090h-248z" />
<glyph unicode="o" horiz-adv-x="1982" d="M86 760q0 215 94 382t258 257t371 90h362q213 0 379 -91.5t258.5 -258t92.5 -379.5q0 -214 -93.5 -387.5t-260.5 -273t-376 -99.5h-362q-205 0 -370.5 99.5t-259 273.5t-93.5 387zM346 748q0 -211 131 -349.5t332 -138.5h362q205 0 337 138.5t132 349.5t-132 346 t-337 135h-362q-201 0 -332 -135t-131 -346z" />
<glyph unicode="p" horiz-adv-x="1775" d="M129 0v1489h1047q256 0 400 -143t144 -390q0 -245 -145 -393.5t-399 -148.5h-598v252h598q135 0 212.5 77t77.5 205q0 130 -77 205.5t-213 75.5h-789v-1229h-258z" />
<glyph unicode="q" horiz-adv-x="1982" d="M86 760q0 215 94 382t258 257t371 90h362q213 0 379 -91.5t258.5 -258t92.5 -379.5q0 -160 -54.5 -300t-152.5 -243l280 -217h-346l-102 88q-163 -88 -355 -88h-362q-205 0 -370.5 99.5t-259 273.5t-93.5 387zM346 748q0 -211 131 -349.5t332 -138.5h362q63 0 129 16 l-430 338h344l277 -233q70 67 109.5 162t39.5 205q0 211 -132 346t-337 135h-362q-201 0 -332 -135t-131 -346z" />
<glyph unicode="r" horiz-adv-x="1886" d="M129 0v1489h1069q253 0 397 -146t144 -397q0 -183 -80.5 -310t-226.5 -183l448 -453h-369l-376 414h-557v229h620q139 0 212 77t73 222q0 142 -74.5 214.5t-210.5 72.5h-811v-1229h-258z" />
<glyph unicode="s" horiz-adv-x="1802" d="M106 1071q0 186 121 302t338 116h1069v-260h-1069q-89 0 -138.5 -48.5t-49.5 -133.5t50 -133t136 -48h682q228 0 345.5 -107.5t117.5 -322.5q0 -196 -119 -316t-344 -120h-1116v260h1116q103 0 160 53t57 142q0 95 -56 143.5t-161 48.5h-684q-208 0 -331.5 118.5 t-123.5 305.5z" />
<glyph unicode="t" horiz-adv-x="1474" d="M41 1229v260h1391v-260h-566v-1229h-260v1229h-565z" />
<glyph unicode="u" horiz-adv-x="1820" d="M106 657v832h269v-832q0 -153 50.5 -243t169 -134t323.5 -44t323.5 44t168.5 134t50 243v832h254v-832q0 -351 -188.5 -514t-616.5 -163q-425 0 -614 163.5t-189 513.5z" />
<glyph unicode="v" d="M29 1489h317l676 -1147l674 1147h299l-858 -1426q-50 -83 -125 -83q-77 0 -127 83z" />
<glyph unicode="w" horiz-adv-x="2596" d="M29 1489h311l602 -1145l225 406l-387 739h314l575 -1145l606 1145h291l-770 -1428q-46 -81 -135 -81q-90 0 -133 81l-230 437l-231 -437q-43 -81 -133 -81q-89 0 -135 81z" />
<glyph unicode="x" horiz-adv-x="2048" d="M45 0l799 774l-742 715h359l567 -551l559 551h338l-741 -715l807 -774h-365l-625 608l-618 -608h-338z" />
<glyph unicode="y" horiz-adv-x="1896" d="M27 1489h350l579 -686l582 686h332l-793 -924v-565h-260v565z" />
<glyph unicode="z" horiz-adv-x="1642" d="M82 133q0 58 53 111l989 997h-1024v248h1303q61 0 104 -35t43 -98q0 -58 -53 -111l-989 -997h1036v-248h-1315q-62 0 -104.5 35t-42.5 98z" />
<glyph unicode="{" horiz-adv-x="690" d="M127 680v141q58 1 81 13t23 38v576q0 114 63.5 179t170.5 65h94v-144q-158 0 -158 -135v-495q0 -71 -18 -111t-61 -57q47 -19 63 -56.5t16 -109.5v-492q0 -77 38.5 -104t119.5 -27v-143h-94q-107 0 -170.5 63t-63.5 176v570q0 27 -22.5 39.5t-81.5 13.5z" />
<glyph unicode="|" horiz-adv-x="608" d="M227 -182v1874h154v-1874h-154z" />
<glyph unicode="}" horiz-adv-x="690" d="M127 -39q81 0 119.5 27t38.5 104v492q0 72 16.5 109.5t63.5 56.5q-43 17 -61.5 57t-18.5 111v495q0 135 -158 135v144h94q107 0 170.5 -65t63.5 -179v-576q0 -26 23 -38t81 -13v-141q-59 -1 -81.5 -13.5t-22.5 -39.5v-570q0 -113 -63.5 -176t-170.5 -63h-94v143z" />
<glyph unicode="~" horiz-adv-x="1415" d="M131 621v188q112 109 295 109q66 0 143.5 -22t137 -48t137.5 -48t145 -22q83 0 166 36.5t131 84.5v-190q-114 -105 -297 -105q-66 0 -143 21.5t-137 48t-138 48t-145 21.5q-82 0 -163.5 -34.5t-131.5 -87.5z" />
<glyph unicode="&#xa1;" horiz-adv-x="610" d="M170 1368q0 63 38.5 102t100.5 39q59 0 99.5 -39.5t40.5 -101.5q0 -59 -40.5 -98t-99.5 -39q-61 0 -100 38.5t-39 98.5zM190 0v1012h246v-1012h-246z" />
<glyph unicode="&#xa2;" horiz-adv-x="1417" d="M86 756q0 263 163 425t419 162h147v146h115v-146h385v-210h-385v-775h385v-213h-385v-145h-115v145h-147q-166 0 -299.5 80t-208 219.5t-74.5 311.5zM295 745q0 -167 106 -277t267 -110h147v775h-147q-162 0 -267.5 -108.5t-105.5 -279.5z" />
<glyph unicode="&#xa3;" horiz-adv-x="1452" d="M59 0v260h183v410h-103v192h103v187q0 96 28 175.5t83 139t143 92.5t202 33h453v-260h-414q-120 0 -185 -52.5t-65 -160.5v-154h414v-192h-414v-410h883v-260h-1311z" />
<glyph unicode="&#xa5;" horiz-adv-x="1611" d="M39 1489h311l459 -715l444 715h306l-529 -805h332v-176h-434v-180h434v-176h-434v-152h-246v152h-422v176h422v180h-422v176h318z" />
<glyph unicode="&#xa6;" horiz-adv-x="608" d="M227 -182v815h154v-815h-154zM227 860v832h154v-832h-154z" />
<glyph unicode="&#xa7;" horiz-adv-x="1583" d="M100 1096q0 170 113 281.5t311 111.5h774v-248h-731q-98 0 -159.5 -45t-61.5 -133q0 -79 47.5 -127.5t128.5 -48.5h504q182 0 273.5 -84t91.5 -232q0 -85 -31.5 -151.5t-91.5 -104.5q90 -42 143 -128.5t53 -198.5q0 -175 -112.5 -287.5t-313.5 -112.5h-776v248h733 q95 0 157 45t62 133q0 79 -47 127.5t-129 48.5h-501q-181 0 -273 84.5t-92 229.5q0 184 121 256q-90 43 -141.5 132.5t-51.5 203.5zM397 543q0 -75 46.5 -118.5t134.5 -43.5h417q82 0 125 42.5t43 111.5q0 75 -46 118t-132 43h-420q-82 0 -125 -42t-43 -111z" />
<glyph unicode="&#xa8;" horiz-adv-x="804" d="M109 1737q0 42 29.5 67t76.5 25q44 0 73 -25t29 -67t-29 -67t-73 -25q-47 0 -76.5 25t-29.5 67zM487 1737q0 42 30 67t75 25t74.5 -25t29.5 -67t-29.5 -67t-74.5 -25t-75 25t-30 67z" />
<glyph unicode="&#xaa;" horiz-adv-x="1236" d="M78 614l471 785q25 45 69 45q43 0 68 -45l473 -785h-172l-123 207h-389l68 115h252l-183 307l-372 -629h-162z" />
<glyph unicode="&#xab;" horiz-adv-x="1288" d="M86 760q0 34 35 55l547 328v-129l-447 -256l447 -258v-121l-547 330q-35 21 -35 51zM621 760q0 34 34 55l549 328v-129l-446 -256l446 -258v-121l-549 330q-34 20 -34 51z" />
<glyph unicode="&#xad;" horiz-adv-x="606" d="M59 670v174h492v-174h-492z" />
<glyph unicode="&#xaf;" horiz-adv-x="741" d="M109 1663v119h524v-119h-524z" />
<glyph unicode="&#xb0;" horiz-adv-x="739" d="M86 1225q0 282 281 282q286 0 286 -282q0 -281 -286 -281q-281 0 -281 281zM199 1225q0 -164 168 -164q170 0 170 162q0 168 -170 168q-168 0 -168 -166z" />
<glyph unicode="&#xb1;" horiz-adv-x="1413" d="M129 66h1155v-172h-1155v172zM129 672v172h492v491h174v-491h489v-172h-489v-494h-174v494h-492z" />
<glyph unicode="&#xb2;" horiz-adv-x="905" d="M94 768v217q0 215 230 215h270q42 0 68 24.5t26 65.5q0 43 -25.5 67.5t-68.5 24.5h-494v129h494q108 0 167.5 -57.5t59.5 -150.5q0 -94 -61.5 -152.5t-165.5 -58.5h-270q-107 0 -107 -97v-98h592v-129h-715z" />
<glyph unicode="&#xb3;" horiz-adv-x="907" d="M78 768v129h477q63 0 101 26t38 72t-28.5 71.5t-83.5 25.5h-328v108h319q56 0 82.5 21.5t26.5 68.5q0 50 -33.5 71t-101.5 21h-467v129h493q110 0 175 -49.5t65 -142.5q0 -66 -28.5 -105.5t-73.5 -52.5q53 -18 84.5 -61.5t31.5 -106.5q0 -102 -65.5 -163.5t-173.5 -61.5 h-510z" />
<glyph unicode="&#xb4;" horiz-adv-x="741" d="M109 1581v117l524 157v-161z" />
<glyph unicode="&#xb6;" horiz-adv-x="1288" d="M92 1153q0 155 91 245.5t251 90.5h725v-1696h-162v1532h-260v-1532h-164v1018h-139q-159 0 -250.5 94t-91.5 248z" />
<glyph unicode="&#xb7;" horiz-adv-x="536" d="M129 737q0 59 39.5 99.5t97.5 40.5q60 0 101 -40.5t41 -99.5t-41 -99t-101 -40q-58 0 -97.5 40t-39.5 99z" />
<glyph unicode="&#xb8;" horiz-adv-x="448" d="M88 -96h272l-137 -316z" />
<glyph unicode="&#xb9;" horiz-adv-x="454" d="M55 1382v129h72q112 0 172.5 -63.5t60.5 -179.5v-500h-129v500q0 114 -104 114h-72z" />
<glyph unicode="&#xba;" horiz-adv-x="1212" d="M109 1032q0 179 112.5 290.5t284.5 111.5h201q177 0 288 -112t111 -290q0 -179 -113 -298.5t-286 -119.5h-201q-170 0 -283.5 119.5t-113.5 298.5zM252 1026q0 -117 72 -192.5t182 -75.5h201q113 0 185.5 75.5t72.5 192.5q0 115 -72.5 189.5t-185.5 74.5h-201 q-110 0 -182 -74t-72 -190z" />
<glyph unicode="&#xbb;" horiz-adv-x="1288" d="M86 379v121l446 258l-446 256v129l549 -328q35 -21 35 -55q0 -30 -35 -51zM621 379v121l446 258l-446 256v129l546 -328q37 -23 37 -55t-37 -51z" />
<glyph unicode="&#xbc;" horiz-adv-x="1990" d="M86 -137l1346 1716h174l-1342 -1716h-178zM256 1382v129h72q112 0 172.5 -63.5t60.5 -179.5v-500h-129v500q0 114 -104 114h-72zM1114 416v307h129v-305q0 -63 27.5 -89t87.5 -26h309v420h129v-420h109v-125h-109v-198h-129v198h-309q-244 0 -244 238z" />
<glyph unicode="&#xbd;" horiz-adv-x="1941" d="M86 -137l1346 1716h174l-1342 -1716h-178zM256 1382v129h72q112 0 172.5 -63.5t60.5 -179.5v-500h-129v500q0 114 -104 114h-72zM1128 -20v217q0 215 230 215h270q42 0 68 24.5t26 65.5q0 43 -25.5 67.5t-68.5 24.5h-493v129h493q108 0 167.5 -58t59.5 -151 q0 -94 -61.5 -152.5t-165.5 -58.5h-270q-107 0 -107 -96v-98h592v-129h-715z" />
<glyph unicode="&#xbe;" horiz-adv-x="2107" d="M86 768v129h477q63 0 101 26t38 72t-28.5 71.5t-83.5 25.5h-328v108h320q56 0 82 21.5t26 68.5q0 50 -33.5 71t-101.5 21h-467v129h494q110 0 174.5 -49.5t64.5 -142.5q0 -66 -28.5 -105.5t-73.5 -52.5q53 -18 85 -62t32 -106q0 -101 -65.5 -163t-174.5 -62h-510z M203 -137l1345 1716h174l-1341 -1716h-178zM1231 416v307h129v-305q0 -63 27.5 -89t87.5 -26h309v420h129v-420h108v-125h-108v-198h-129v198h-309q-244 0 -244 238z" />
<glyph unicode="&#xbf;" horiz-adv-x="1589" d="M57 418q0 188 122 306t329 118h506q96 0 96 86v82h246v-88q0 -140 -86.5 -219.5t-255.5 -79.5h-502q-87 0 -137.5 -48.5t-50.5 -132.5q0 -85 50 -133.5t138 -48.5h983v-260h-983q-215 0 -335 116t-120 302zM1090 1364q0 63 38.5 102t100.5 39q59 0 99 -39.5t40 -101.5 q0 -59 -40 -98t-99 -39q-61 0 -100 38.5t-39 98.5z" />
<glyph unicode="&#xc0;" d="M29 0l856 1425q51 84 127 84q74 0 125 -84l858 -1425h-314l-223 375h-704l123 211h456l-332 557l-675 -1143h-297zM688 1694v161l524 -157v-117z" />
<glyph unicode="&#xc1;" d="M29 0l856 1425q51 84 127 84q74 0 125 -84l858 -1425h-314l-223 375h-704l123 211h456l-332 557l-675 -1143h-297zM811 1581v117l524 157v-161z" />
<glyph unicode="&#xc2;" d="M29 0l856 1425q51 84 127 84q74 0 125 -84l858 -1425h-314l-223 375h-704l123 211h456l-332 557l-675 -1143h-297zM733 1581l187 274h186l186 -274h-143l-129 199h-16l-130 -199h-141z" />
<glyph unicode="&#xc3;" d="M29 0l856 1425q51 84 127 84q74 0 125 -84l858 -1425h-314l-223 375h-704l123 211h456l-332 557l-675 -1143h-297zM750 1634v121q49 62 133 62q47 0 129 -41t127 -41q40 0 77 21t58 52v-122q-48 -60 -135 -60q-45 0 -127.5 40t-128.5 40q-38 0 -75.5 -21.5t-57.5 -50.5z " />
<glyph unicode="&#xc4;" d="M29 0l856 1425q51 84 127 84q74 0 125 -84l858 -1425h-314l-223 375h-704l123 211h456l-332 557l-675 -1143h-297zM719 1737q0 42 29.5 67t76.5 25q44 0 73.5 -25t29.5 -67t-29.5 -67t-73.5 -25q-47 0 -76.5 25t-29.5 67zM1098 1737q0 42 29.5 67t74.5 25t75 -25t30 -67 t-30 -67t-75 -25t-74.5 25t-29.5 67z" />
<glyph unicode="&#xc5;" d="M29 0l856 1425q51 84 127 84q74 0 125 -84l858 -1425h-314l-223 375h-704l123 211h456l-332 557l-675 -1143h-297zM750 1792q0 92 58.5 148.5t149.5 56.5h105q93 0 152 -56.5t59 -148.5q0 -90 -59.5 -150.5t-151.5 -60.5h-105q-90 0 -149 60.5t-59 150.5zM827 1790 q0 -58 36.5 -95.5t94.5 -37.5h105q58 0 95.5 38t37.5 95t-37 93t-96 36h-105q-57 0 -94 -36t-37 -93z" />
<glyph unicode="&#xc6;" horiz-adv-x="2754" d="M29 0l815 1401q53 88 129 88h1683v-260h-985v-969h989v-260h-1247v362h-676l127 216h549v651h-391l-700 -1229h-293zM1862 647v219h739v-219h-739z" />
<glyph unicode="&#xc7;" horiz-adv-x="1697" d="M86 760q0 215 94 382t258 257t371 90h807v-260h-807q-201 0 -332 -135t-131 -346t131 -349.5t332 -138.5h807v-260h-807q-205 0 -370.5 99.5t-259 273.5t-93.5 387zM754 -96h272l-137 -316z" />
<glyph unicode="&#xc8;" horiz-adv-x="1554" d="M129 0v1489h1329v-260h-1071v-969h1073v-260h-1331zM453 1694v161l524 -157v-117zM578 647v219h825v-219h-825z" />
<glyph unicode="&#xc9;" horiz-adv-x="1554" d="M129 0v1489h1329v-260h-1071v-969h1073v-260h-1331zM575 1581v117l525 157v-161zM578 647v219h825v-219h-825z" />
<glyph unicode="&#xca;" horiz-adv-x="1554" d="M129 0v1489h1329v-260h-1071v-969h1073v-260h-1331zM498 1581l186 274h186l187 -274h-144l-129 199h-16l-129 -199h-141zM578 647v219h825v-219h-825z" />
<glyph unicode="&#xcb;" horiz-adv-x="1554" d="M129 0v1489h1329v-260h-1071v-969h1073v-260h-1331zM483 1737q0 42 30 67t77 25q44 0 73 -25t29 -67t-29 -67t-73 -25q-47 0 -77 25t-30 67zM578 647v219h825v-219h-825zM862 1737q0 42 30 67t75 25t74.5 -25t29.5 -67t-29.5 -67t-74.5 -25t-75 25t-30 67z" />
<glyph unicode="&#xcc;" horiz-adv-x="546" d="M-49 1694v161l524 -157v-117zM143 0v1489h260v-1489h-260z" />
<glyph unicode="&#xcd;" horiz-adv-x="546" d="M74 1581v117l524 157v-161zM143 0v1489h260v-1489h-260z" />
<glyph unicode="&#xce;" horiz-adv-x="546" d="M-6 1581l186 274h187l186 -274h-143l-129 199h-17l-129 -199h-141zM143 0v1489h260v-1489h-260z" />
<glyph unicode="&#xcf;" horiz-adv-x="546" d="M-20 1737q0 42 29.5 67t76.5 25q44 0 73 -25t29 -67t-29 -67t-73 -25q-47 0 -76.5 25t-29.5 67zM143 0v1489h260v-1489h-260zM358 1737q0 42 30 67t75 25t74.5 -25t29.5 -67t-29.5 -67t-74.5 -25t-75 25t-30 67z" />
<glyph unicode="&#xd0;" horiz-adv-x="1796" d="M20 647v219h105v623h862q209 0 374.5 -91.5t259 -258t93.5 -379.5q0 -214 -93 -387.5t-259.5 -273t-374.5 -99.5h-862v647h-105zM383 260h604q201 0 333 138.5t132 349.5q0 210 -131.5 345.5t-333.5 135.5h-604v-363h586v-219h-586v-387z" />
<glyph unicode="&#xd1;" horiz-adv-x="1787" d="M123 0v1352q0 72 35.5 113.5t97.5 41.5q58 0 111 -53l1050 -1042v1089h248v-1364q0 -72 -35.5 -113.5t-93.5 -41.5q-64 0 -119 55l-1046 1053v-1090h-248zM631 1634v121q49 62 133 62q48 0 130 -41t126 -41q40 0 77 21t58 52v-122q-48 -60 -135 -60q-45 0 -127.5 40 t-128.5 40q-38 0 -75.5 -21.5t-57.5 -50.5z" />
<glyph unicode="&#xd2;" horiz-adv-x="1982" d="M86 760q0 215 94 382t258 257t371 90h362q213 0 379 -91.5t258.5 -258t92.5 -379.5q0 -214 -93.5 -387.5t-260.5 -273t-376 -99.5h-362q-205 0 -370.5 99.5t-259 273.5t-93.5 387zM346 748q0 -211 131 -349.5t332 -138.5h362q205 0 337 138.5t132 349.5t-132 346 t-337 135h-362q-201 0 -332 -135t-131 -346zM668 1694v161l524 -157v-117z" />
<glyph unicode="&#xd3;" horiz-adv-x="1982" d="M86 760q0 215 94 382t258 257t371 90h362q213 0 379 -91.5t258.5 -258t92.5 -379.5q0 -214 -93.5 -387.5t-260.5 -273t-376 -99.5h-362q-205 0 -370.5 99.5t-259 273.5t-93.5 387zM346 748q0 -211 131 -349.5t332 -138.5h362q205 0 337 138.5t132 349.5t-132 346 t-337 135h-362q-201 0 -332 -135t-131 -346zM791 1581v117l524 157v-161z" />
<glyph unicode="&#xd4;" horiz-adv-x="1982" d="M86 760q0 215 94 382t258 257t371 90h362q213 0 379 -91.5t258.5 -258t92.5 -379.5q0 -214 -93.5 -387.5t-260.5 -273t-376 -99.5h-362q-205 0 -370.5 99.5t-259 273.5t-93.5 387zM346 748q0 -211 131 -349.5t332 -138.5h362q205 0 337 138.5t132 349.5t-132 346 t-337 135h-362q-201 0 -332 -135t-131 -346zM711 1581l186 274h186l187 -274h-144l-129 199h-16l-129 -199h-141z" />
<glyph unicode="&#xd5;" horiz-adv-x="1982" d="M86 760q0 215 94 382t258 257t371 90h362q213 0 379 -91.5t258.5 -258t92.5 -379.5q0 -214 -93.5 -387.5t-260.5 -273t-376 -99.5h-362q-205 0 -370.5 99.5t-259 273.5t-93.5 387zM346 748q0 -211 131 -349.5t332 -138.5h362q205 0 337 138.5t132 349.5t-132 346 t-337 135h-362q-201 0 -332 -135t-131 -346zM729 1634v121q49 62 133 62q48 0 130 -41t126 -41q40 0 77 21t58 52v-122q-48 -60 -135 -60q-45 0 -127.5 40t-128.5 40q-38 0 -75.5 -21.5t-57.5 -50.5z" />
<glyph unicode="&#xd6;" horiz-adv-x="1982" d="M86 760q0 215 94 382t258 257t371 90h362q213 0 379 -91.5t258.5 -258t92.5 -379.5q0 -214 -93.5 -387.5t-260.5 -273t-376 -99.5h-362q-205 0 -370.5 99.5t-259 273.5t-93.5 387zM346 748q0 -211 131 -349.5t332 -138.5h362q205 0 337 138.5t132 349.5t-132 346 t-337 135h-362q-201 0 -332 -135t-131 -346zM696 1737q0 42 30 67t77 25q44 0 73 -25t29 -67t-29 -67t-73 -25q-47 0 -77 25t-30 67zM1075 1737q0 42 30 67t75 25t74.5 -25t29.5 -67t-29.5 -67t-74.5 -25t-75 25t-30 67z" />
<glyph unicode="&#xd7;" horiz-adv-x="1413" d="M236 410l348 348l-348 346l122 125l349 -348l346 346l121 -123l-347 -346l351 -348l-123 -123l-350 348l-347 -346z" />
<glyph unicode="&#xd8;" horiz-adv-x="1982" d="M86 760q0 215 94 382t258 257t371 90h362q181 0 338 -72l146 172l78 -67l-134 -156q143 -97 222.5 -253.5t79.5 -352.5q0 -214 -93.5 -387.5t-260.5 -273t-376 -99.5h-362q-164 0 -309 68l-144 -170l-77 67l129 154q-150 101 -236 269t-86 372zM346 748q0 -143 62 -255.5 t170 -173.5l751 885q-87 25 -158 25h-362q-201 0 -332 -135t-131 -346zM678 276q66 -16 131 -16h362q205 0 337 138.5t132 349.5q0 135 -57 242t-158 169z" />
<glyph unicode="&#xd9;" horiz-adv-x="1820" d="M106 657v832h269v-832q0 -153 50.5 -243t169 -134t323.5 -44t323.5 44t168.5 134t50 243v832h254v-832q0 -351 -188.5 -514t-616.5 -163q-425 0 -614 163.5t-189 513.5zM586 1694v161l524 -157v-117z" />
<glyph unicode="&#xda;" horiz-adv-x="1820" d="M106 657v832h269v-832q0 -153 50.5 -243t169 -134t323.5 -44t323.5 44t168.5 134t50 243v832h254v-832q0 -351 -188.5 -514t-616.5 -163q-425 0 -614 163.5t-189 513.5zM709 1581v117l524 157v-161z" />
<glyph unicode="&#xdb;" horiz-adv-x="1820" d="M106 657v832h269v-832q0 -153 50.5 -243t169 -134t323.5 -44t323.5 44t168.5 134t50 243v832h254v-832q0 -351 -188.5 -514t-616.5 -163q-425 0 -614 163.5t-189 513.5zM631 1581l186 274h187l186 -274h-143l-129 199h-17l-129 -199h-141z" />
<glyph unicode="&#xdc;" horiz-adv-x="1820" d="M106 657v832h269v-832q0 -153 50.5 -243t169 -134t323.5 -44t323.5 44t168.5 134t50 243v832h254v-832q0 -351 -188.5 -514t-616.5 -163q-425 0 -614 163.5t-189 513.5zM616 1737q0 42 30 67t77 25q44 0 73 -25t29 -67t-29 -67t-73 -25q-47 0 -77 25t-30 67zM995 1737 q0 42 30 67t75 25t74.5 -25t29.5 -67t-29.5 -67t-74.5 -25t-75 25t-30 67z" />
<glyph unicode="&#xdd;" horiz-adv-x="1896" d="M27 1489h350l579 -686l582 686h332l-793 -924v-565h-260v565zM756 1581v117l524 157v-161z" />
<glyph unicode="&#xde;" horiz-adv-x="1726" d="M129 0v1489h258v-207h727q258 0 405.5 -146t147.5 -395q0 -252 -148 -403.5t-405 -151.5h-536v250h536q138 0 217.5 81t79.5 216q0 134 -79 211.5t-218 77.5h-727v-1022h-258z" />
<glyph unicode="&#xdf;" horiz-adv-x="3604" d="M106 1071q0 186 121 302t338 116h1069v-260h-1069q-89 0 -138.5 -48.5t-49.5 -133.5t50 -133t136 -48h682q228 0 345.5 -107.5t117.5 -322.5q0 -196 -119 -316t-344 -120h-1116v260h1116q103 0 160 53t57 142q0 95 -56 143.5t-161 48.5h-684q-208 0 -331.5 118.5 t-123.5 305.5zM1909 1071q0 186 120.5 302t337.5 116h1070v-260h-1070q-89 0 -138.5 -48.5t-49.5 -133.5t50 -133t136 -48h682q228 0 345.5 -107.5t117.5 -322.5q0 -196 -119 -316t-344 -120h-1116v260h1116q103 0 160.5 53t57.5 142q0 94 -56.5 143t-161.5 49h-684 q-208 0 -331 118.5t-123 305.5z" />
<glyph unicode="&#xe0;" d="M29 0l856 1425q51 84 127 84q74 0 125 -84l858 -1425h-314l-223 375h-704l123 211h456l-332 557l-675 -1143h-297zM688 1694v161l524 -157v-117z" />
<glyph unicode="&#xe1;" d="M29 0l856 1425q51 84 127 84q74 0 125 -84l858 -1425h-314l-223 375h-704l123 211h456l-332 557l-675 -1143h-297zM811 1581v117l524 157v-161z" />
<glyph unicode="&#xe2;" d="M29 0l856 1425q51 84 127 84q74 0 125 -84l858 -1425h-314l-223 375h-704l123 211h456l-332 557l-675 -1143h-297zM733 1581l187 274h186l186 -274h-143l-129 199h-16l-130 -199h-141z" />
<glyph unicode="&#xe3;" d="M29 0l856 1425q51 84 127 84q74 0 125 -84l858 -1425h-314l-223 375h-704l123 211h456l-332 557l-675 -1143h-297zM750 1634v121q49 62 133 62q47 0 129 -41t127 -41q40 0 77 21t58 52v-122q-48 -60 -135 -60q-45 0 -127.5 40t-128.5 40q-38 0 -75.5 -21.5t-57.5 -50.5z " />
<glyph unicode="&#xe4;" d="M29 0l856 1425q51 84 127 84q74 0 125 -84l858 -1425h-314l-223 375h-704l123 211h456l-332 557l-675 -1143h-297zM719 1737q0 42 29.5 67t76.5 25q44 0 73.5 -25t29.5 -67t-29.5 -67t-73.5 -25q-47 0 -76.5 25t-29.5 67zM1098 1737q0 42 29.5 67t74.5 25t75 -25t30 -67 t-30 -67t-75 -25t-74.5 25t-29.5 67z" />
<glyph unicode="&#xe5;" d="M29 0l856 1425q51 84 127 84q74 0 125 -84l858 -1425h-314l-223 375h-704l123 211h456l-332 557l-675 -1143h-297zM750 1792q0 92 58.5 148.5t149.5 56.5h105q93 0 152 -56.5t59 -148.5q0 -90 -59.5 -150.5t-151.5 -60.5h-105q-90 0 -149 60.5t-59 150.5zM827 1790 q0 -58 36.5 -95.5t94.5 -37.5h105q58 0 95.5 38t37.5 95t-37 93t-96 36h-105q-57 0 -94 -36t-37 -93z" />
<glyph unicode="&#xe6;" horiz-adv-x="2754" d="M29 0l815 1401q53 88 129 88h1683v-260h-985v-969h989v-260h-1247v362h-676l127 216h549v651h-391l-700 -1229h-293zM1862 647v219h739v-219h-739z" />
<glyph unicode="&#xe7;" horiz-adv-x="1697" d="M86 760q0 215 94 382t258 257t371 90h807v-260h-807q-201 0 -332 -135t-131 -346t131 -349.5t332 -138.5h807v-260h-807q-205 0 -370.5 99.5t-259 273.5t-93.5 387zM754 -96h272l-137 -316z" />
<glyph unicode="&#xe8;" horiz-adv-x="1554" d="M129 0v1489h1329v-260h-1071v-969h1073v-260h-1331zM453 1694v161l524 -157v-117zM578 647v219h825v-219h-825z" />
<glyph unicode="&#xe9;" horiz-adv-x="1554" d="M129 0v1489h1329v-260h-1071v-969h1073v-260h-1331zM575 1581v117l525 157v-161zM578 647v219h825v-219h-825z" />
<glyph unicode="&#xea;" horiz-adv-x="1554" d="M129 0v1489h1329v-260h-1071v-969h1073v-260h-1331zM498 1581l186 274h186l187 -274h-144l-129 199h-16l-129 -199h-141zM578 647v219h825v-219h-825z" />
<glyph unicode="&#xeb;" horiz-adv-x="1554" d="M129 0v1489h1329v-260h-1071v-969h1073v-260h-1331zM483 1737q0 42 30 67t77 25q44 0 73 -25t29 -67t-29 -67t-73 -25q-47 0 -77 25t-30 67zM578 647v219h825v-219h-825zM862 1737q0 42 30 67t75 25t74.5 -25t29.5 -67t-29.5 -67t-74.5 -25t-75 25t-30 67z" />
<glyph unicode="&#xec;" horiz-adv-x="546" d="M-49 1694v161l524 -157v-117zM143 0v1489h260v-1489h-260z" />
<glyph unicode="&#xed;" horiz-adv-x="546" d="M74 1581v117l524 157v-161zM143 0v1489h260v-1489h-260z" />
<glyph unicode="&#xee;" horiz-adv-x="546" d="M-6 1581l186 274h187l186 -274h-143l-129 199h-17l-129 -199h-141zM143 0v1489h260v-1489h-260z" />
<glyph unicode="&#xef;" horiz-adv-x="546" d="M-20 1737q0 42 29.5 67t76.5 25q44 0 73 -25t29 -67t-29 -67t-73 -25q-47 0 -76.5 25t-29.5 67zM143 0v1489h260v-1489h-260zM358 1737q0 42 30 67t75 25t74.5 -25t29.5 -67t-29.5 -67t-74.5 -25t-75 25t-30 67z" />
<glyph unicode="&#xf0;" horiz-adv-x="1796" d="M20 647v219h105v623h862q209 0 374.5 -91.5t259 -258t93.5 -379.5q0 -214 -93 -387.5t-259.5 -273t-374.5 -99.5h-862v647h-105zM383 260h604q201 0 333 138.5t132 349.5q0 210 -131.5 345.5t-333.5 135.5h-604v-363h586v-219h-586v-387z" />
<glyph unicode="&#xf1;" horiz-adv-x="1787" d="M123 0v1352q0 72 35.5 113.5t97.5 41.5q58 0 111 -53l1050 -1042v1089h248v-1364q0 -72 -35.5 -113.5t-93.5 -41.5q-64 0 -119 55l-1046 1053v-1090h-248zM631 1634v121q49 62 133 62q48 0 130 -41t126 -41q40 0 77 21t58 52v-122q-48 -60 -135 -60q-45 0 -127.5 40 t-128.5 40q-38 0 -75.5 -21.5t-57.5 -50.5z" />
<glyph unicode="&#xf2;" horiz-adv-x="1982" d="M86 760q0 215 94 382t258 257t371 90h362q213 0 379 -91.5t258.5 -258t92.5 -379.5q0 -214 -93.5 -387.5t-260.5 -273t-376 -99.5h-362q-205 0 -370.5 99.5t-259 273.5t-93.5 387zM346 748q0 -211 131 -349.5t332 -138.5h362q205 0 337 138.5t132 349.5t-132 346 t-337 135h-362q-201 0 -332 -135t-131 -346zM668 1694v161l524 -157v-117z" />
<glyph unicode="&#xf3;" horiz-adv-x="1982" d="M86 760q0 215 94 382t258 257t371 90h362q213 0 379 -91.5t258.5 -258t92.5 -379.5q0 -214 -93.5 -387.5t-260.5 -273t-376 -99.5h-362q-205 0 -370.5 99.5t-259 273.5t-93.5 387zM346 748q0 -211 131 -349.5t332 -138.5h362q205 0 337 138.5t132 349.5t-132 346 t-337 135h-362q-201 0 -332 -135t-131 -346zM791 1581v117l524 157v-161z" />
<glyph unicode="&#xf4;" horiz-adv-x="1982" d="M86 760q0 215 94 382t258 257t371 90h362q213 0 379 -91.5t258.5 -258t92.5 -379.5q0 -214 -93.5 -387.5t-260.5 -273t-376 -99.5h-362q-205 0 -370.5 99.5t-259 273.5t-93.5 387zM346 748q0 -211 131 -349.5t332 -138.5h362q205 0 337 138.5t132 349.5t-132 346 t-337 135h-362q-201 0 -332 -135t-131 -346zM711 1581l186 274h186l187 -274h-144l-129 199h-16l-129 -199h-141z" />
<glyph unicode="&#xf5;" horiz-adv-x="1982" d="M86 760q0 215 94 382t258 257t371 90h362q213 0 379 -91.5t258.5 -258t92.5 -379.5q0 -214 -93.5 -387.5t-260.5 -273t-376 -99.5h-362q-205 0 -370.5 99.5t-259 273.5t-93.5 387zM346 748q0 -211 131 -349.5t332 -138.5h362q205 0 337 138.5t132 349.5t-132 346 t-337 135h-362q-201 0 -332 -135t-131 -346zM729 1634v121q49 62 133 62q48 0 130 -41t126 -41q40 0 77 21t58 52v-122q-48 -60 -135 -60q-45 0 -127.5 40t-128.5 40q-38 0 -75.5 -21.5t-57.5 -50.5z" />
<glyph unicode="&#xf6;" horiz-adv-x="1982" d="M86 760q0 215 94 382t258 257t371 90h362q213 0 379 -91.5t258.5 -258t92.5 -379.5q0 -214 -93.5 -387.5t-260.5 -273t-376 -99.5h-362q-205 0 -370.5 99.5t-259 273.5t-93.5 387zM346 748q0 -211 131 -349.5t332 -138.5h362q205 0 337 138.5t132 349.5t-132 346 t-337 135h-362q-201 0 -332 -135t-131 -346zM696 1737q0 42 30 67t77 25q44 0 73 -25t29 -67t-29 -67t-73 -25q-47 0 -77 25t-30 67zM1075 1737q0 42 30 67t75 25t74.5 -25t29.5 -67t-29.5 -67t-74.5 -25t-75 25t-30 67z" />
<glyph unicode="&#xf7;" horiz-adv-x="1413" d="M129 672v172h1155v-172h-1155zM567 205q0 59 40 99t98 40q60 0 100.5 -40t40.5 -99t-40.5 -99t-100.5 -40q-58 0 -98 40t-40 99zM567 1290q0 59 40 99.5t98 40.5q60 0 100.5 -40.5t40.5 -99.5t-40.5 -99t-100.5 -40q-58 0 -98 40t-40 99z" />
<glyph unicode="&#xf8;" horiz-adv-x="1982" d="M86 760q0 215 94 382t258 257t371 90h362q181 0 338 -72l146 172l78 -67l-134 -156q143 -97 222.5 -253.5t79.5 -352.5q0 -214 -93.5 -387.5t-260.5 -273t-376 -99.5h-362q-164 0 -309 68l-144 -170l-77 67l129 154q-150 101 -236 269t-86 372zM346 748q0 -143 62 -255.5 t170 -173.5l751 885q-87 25 -158 25h-362q-201 0 -332 -135t-131 -346zM678 276q66 -16 131 -16h362q205 0 337 138.5t132 349.5q0 135 -57 242t-158 169z" />
<glyph unicode="&#xf9;" horiz-adv-x="1820" d="M106 657v832h269v-832q0 -153 50.5 -243t169 -134t323.5 -44t323.5 44t168.5 134t50 243v832h254v-832q0 -351 -188.5 -514t-616.5 -163q-425 0 -614 163.5t-189 513.5zM586 1694v161l524 -157v-117z" />
<glyph unicode="&#xfa;" horiz-adv-x="1820" d="M106 657v832h269v-832q0 -153 50.5 -243t169 -134t323.5 -44t323.5 44t168.5 134t50 243v832h254v-832q0 -351 -188.5 -514t-616.5 -163q-425 0 -614 163.5t-189 513.5zM709 1581v117l524 157v-161z" />
<glyph unicode="&#xfb;" horiz-adv-x="1820" d="M106 657v832h269v-832q0 -153 50.5 -243t169 -134t323.5 -44t323.5 44t168.5 134t50 243v832h254v-832q0 -351 -188.5 -514t-616.5 -163q-425 0 -614 163.5t-189 513.5zM631 1581l186 274h187l186 -274h-143l-129 199h-17l-129 -199h-141z" />
<glyph unicode="&#xfc;" horiz-adv-x="1820" d="M106 657v832h269v-832q0 -153 50.5 -243t169 -134t323.5 -44t323.5 44t168.5 134t50 243v832h254v-832q0 -351 -188.5 -514t-616.5 -163q-425 0 -614 163.5t-189 513.5zM616 1737q0 42 30 67t77 25q44 0 73 -25t29 -67t-29 -67t-73 -25q-47 0 -77 25t-30 67zM995 1737 q0 42 30 67t75 25t74.5 -25t29.5 -67t-29.5 -67t-74.5 -25t-75 25t-30 67z" />
<glyph unicode="&#xfd;" horiz-adv-x="1896" d="M27 1489h350l579 -686l582 686h332l-793 -924v-565h-260v565zM756 1581v117l524 157v-161z" />
<glyph unicode="&#xfe;" horiz-adv-x="1726" d="M129 0v1489h258v-207h727q258 0 405.5 -146t147.5 -395q0 -252 -148 -403.5t-405 -151.5h-536v250h536q138 0 217.5 81t79.5 216q0 134 -79 211.5t-218 77.5h-727v-1022h-258z" />
<glyph unicode="&#xff;" horiz-adv-x="1896" d="M27 1489h350l579 -686l582 686h332l-793 -924v-565h-260v565zM662 1737q0 42 29.5 67t76.5 25q44 0 73 -25t29 -67t-29 -67t-73 -25q-47 0 -76.5 25t-29.5 67zM1040 1737q0 42 30 67t75 25t74.5 -25t29.5 -67t-29.5 -67t-74.5 -25t-75 25t-30 67z" />
<glyph unicode="&#x152;" horiz-adv-x="2670" d="M86 760q0 215 94 382t258 257t371 90h1765v-260h-1011v-969h1013v-260h-1767q-205 0 -370.5 99.5t-259 273.5t-93.5 387zM346 748q0 -211 131 -349.5t332 -138.5h494v969h-494q-201 0 -332 -135t-131 -346zM1751 647v219h766v-219h-766z" />
<glyph unicode="&#x153;" horiz-adv-x="2670" d="M86 760q0 215 94 382t258 257t371 90h1765v-260h-1011v-969h1013v-260h-1767q-205 0 -370.5 99.5t-259 273.5t-93.5 387zM346 748q0 -211 131 -349.5t332 -138.5h494v969h-494q-201 0 -332 -135t-131 -346zM1751 647v219h766v-219h-766z" />
<glyph unicode="&#x178;" horiz-adv-x="1896" d="M27 1489h350l579 -686l582 686h332l-793 -924v-565h-260v565zM662 1737q0 42 29.5 67t76.5 25q44 0 73 -25t29 -67t-29 -67t-73 -25q-47 0 -76.5 25t-29.5 67zM1040 1737q0 42 30 67t75 25t74.5 -25t29.5 -67t-29.5 -67t-74.5 -25t-75 25t-30 67z" />
<glyph unicode="&#x2c6;" horiz-adv-x="776" d="M109 1581l186 274h186l187 -274h-144l-129 199h-16l-129 -199h-141z" />
<glyph unicode="&#x2dc;" horiz-adv-x="741" d="M109 1634v121q49 62 133 62q48 0 130 -41t126 -41q40 0 77 21t58 52v-122q-48 -60 -135 -60q-45 0 -127.5 40t-128.5 40q-38 0 -75.5 -21.5t-57.5 -50.5z" />
<glyph unicode="&#x2000;" horiz-adv-x="998" />
<glyph unicode="&#x2001;" horiz-adv-x="1997" />
<glyph unicode="&#x2002;" horiz-adv-x="998" />
<glyph unicode="&#x2003;" horiz-adv-x="1997" />
<glyph unicode="&#x2004;" horiz-adv-x="665" />
<glyph unicode="&#x2005;" horiz-adv-x="499" />
<glyph unicode="&#x2006;" horiz-adv-x="332" />
<glyph unicode="&#x2007;" horiz-adv-x="332" />
<glyph unicode="&#x2008;" horiz-adv-x="249" />
<glyph unicode="&#x2009;" horiz-adv-x="399" />
<glyph unicode="&#x200a;" horiz-adv-x="110" />
<glyph unicode="&#x2010;" horiz-adv-x="606" d="M59 670v174h492v-174h-492z" />
<glyph unicode="&#x2011;" horiz-adv-x="606" d="M59 670v174h492v-174h-492z" />
<glyph unicode="&#x2012;" horiz-adv-x="606" d="M59 670v174h492v-174h-492z" />
<glyph unicode="&#x2013;" horiz-adv-x="1208" d="M59 655v205h1096v-205h-1096z" />
<glyph unicode="&#x2014;" horiz-adv-x="1773" d="M59 655v205h1659v-205h-1659z" />
<glyph unicode="&#x2018;" horiz-adv-x="530" d="M129 1489h272v-533h-170z" />
<glyph unicode="&#x2019;" horiz-adv-x="530" d="M139 956v533h262l-102 -533h-160z" />
<glyph unicode="&#x201a;" horiz-adv-x="530" d="M139 -242v533h262l-102 -533h-160z" />
<glyph unicode="&#x201c;" horiz-adv-x="946" d="M129 1489h272v-533h-170zM565 1489h273v-533h-168z" />
<glyph unicode="&#x201d;" horiz-adv-x="946" d="M139 956v533h262l-102 -533h-160zM575 956v533h263l-103 -533h-160z" />
<glyph unicode="&#x201e;" horiz-adv-x="946" d="M139 -242v533h262l-102 -533h-160zM575 -242v533h263l-103 -533h-160z" />
<glyph unicode="&#x2022;" horiz-adv-x="845" d="M129 760q0 122 85.5 208.5t205.5 86.5q122 0 209.5 -87t87.5 -208q0 -120 -88 -207.5t-209 -87.5q-120 0 -205.5 87.5t-85.5 207.5z" />
<glyph unicode="&#x2026;" horiz-adv-x="2682" d="M129 123q0 59 39.5 99t97.5 40q60 0 101 -40t41 -99t-41 -99t-101 -40q-58 0 -97.5 40t-39.5 99zM1202 123q0 59 39.5 99t97.5 40q60 0 101 -40t41 -99t-41 -99t-101 -40q-58 0 -97.5 40t-39.5 99zM2275 123q0 59 40 99t98 40q60 0 100.5 -40t40.5 -99t-40.5 -99 t-100.5 -40q-58 0 -98 40t-40 99z" />
<glyph unicode="&#x202f;" horiz-adv-x="399" />
<glyph unicode="&#x2039;" horiz-adv-x="751" d="M86 760q0 34 35 55l547 328v-129l-447 -256l447 -258v-121l-547 330q-35 21 -35 51z" />
<glyph unicode="&#x203a;" horiz-adv-x="753" d="M86 379v121l446 258l-446 256v129l549 -328q35 -21 35 -55q0 -30 -35 -51z" />
<glyph unicode="&#x205f;" horiz-adv-x="499" />
<glyph unicode="&#x20ac;" horiz-adv-x="1810" d="M61 561l27 94h129q-6 49 -6 105q0 30 4 84h-154l27 96h141q55 250 247.5 399.5t459.5 149.5h809l-170 -260h-639q-148 0 -259 -78t-159 -211h879l-64 -96h-852q-8 -41 -8 -96q0 -46 6 -93h735l-61 -94h-639q46 -137 159 -219t263 -82h692v-260h-692q-260 0 -452 155.5 t-251 405.5h-172z" />
<glyph unicode="&#x2122;" horiz-adv-x="1097" d="M92 1401v88h371v-88h-139v-418h-91v418h-141zM530 983v506h84l136 -361l137 361h82v-506h-88v283l-95 -283h-69l-99 283v-283h-88z" />
<glyph unicode="&#xe000;" horiz-adv-x="1484" d="M0 0v1485h1485v-1485h-1485z" />
</font>
</defs>
</svg>
